#define peanut_width 24
#define peanut_height 24
static unsigned char peanut_bits[] = {
   0x00, 0x00, 0x00, 0xf0, 0x00, 0x00, 0x0c, 0x03, 0x00, 0x22, 0x04, 0x00,
   0x02, 0x08, 0x00, 0x01, 0x11, 0x00, 0x01, 0x10, 0x00, 0x01, 0x20, 0x00,
   0x21, 0xc0, 0x00, 0x01, 0x00, 0x03, 0x02, 0x00, 0x0c, 0x06, 0x00, 0x10,
   0x0c, 0x00, 0x20, 0x30, 0x00, 0x42, 0xc0, 0x20, 0x40, 0x00, 0x01, 0x40,
   0x00, 0x02, 0x80, 0x00, 0x02, 0x82, 0x00, 0x04, 0x80, 0x00, 0x08, 0x80,
   0x00, 0x30, 0x40, 0x00, 0xc0, 0x31, 0x00, 0x00, 0x0e, 0x00, 0x00, 0x00 };
