#define _rad_width 19
#define _rad_height 6
static unsigned char _rad_bits[] = {
   0xe0, 0x98, 0x03, 0x20, 0xa5, 0x04, 0xe0, 0xbc, 0x04, 0x20, 0xa5, 0x04,
   0x20, 0xa5, 0x04, 0x20, 0xa5, 0x03 };
