#define asterisk_width 7
#define asterisk_height 23
static unsigned char asterisk_bits[] = {
   0x00, 0x00, 0x00, 0x00, 0x00, 0x00, 0x00, 0x00, 0x00, 0x00, 0x00, 0x00,
   0x00, 0x00, 0x00, 0x00, 0x00, 0x00, 0x54, 0x38, 0x10, 0x38, 0x54 };
