#define b_width 10
#define b_height 9
static unsigned char b_bits[] = {
   0x00, 0x00, 0x00, 0x00, 0x00, 0x03, 0x00, 0x03, 0x00, 0x03, 0x00, 0x03,
   0x00, 0x03, 0x00, 0x03, 0x00, 0x03 };
