#define begin_width 23
#define begin_height 6
static unsigned char begin_bits[] = {
   0xe7, 0x99, 0x4b, 0x29, 0x24, 0x59, 0xe7, 0x04, 0x69, 0x29, 0x34, 0x49,
   0x29, 0x24, 0x49, 0xe7, 0x99, 0x4b };
