#define dmy_width 19
#define dmy_height 6
static unsigned char dmy_bits[] = {
   0x07, 0x51, 0x04, 0x09, 0x5b, 0x04, 0x09, 0x95, 0x02, 0x09, 0x11, 0x01,
   0x69, 0x11, 0x01, 0x67, 0x11, 0x01 };
