#define e_width 2
#define e_height 18
static unsigned char e_bits[] = {
   0x00, 0x00, 0x00, 0x00, 0x00, 0x00, 0x00, 0x00, 0x00, 0x00, 0x00, 0x03,
   0x03, 0x03, 0x03, 0x03, 0x03, 0x03 };
