#define f_width 2
#define f_height 9
static unsigned char f_bits[] = {
   0x00, 0x00, 0x03, 0x03, 0x03, 0x03, 0x03, 0x03, 0x03 };
