#define f_fn_width 4
#define f_fn_height 6
static unsigned char f_fn_bits[] = {
   0x04, 0x0a, 0x02, 0x07, 0x02, 0x02 };
