#define user_width 20
#define user_height 6
static unsigned char user_bits[] = {
   0x92, 0x7b, 0x07, 0x52, 0x08, 0x09, 0x92, 0x39, 0x07, 0x12, 0x0a, 0x09,
   0x12, 0x0a, 0x09, 0xcc, 0x79, 0x09 };
