<?xml version="1.0" encoding="iso-8859-1"?>
<!-- Uploaded to: SVG Repo, www.svgrepo.com, Generator: SVG Repo Mixer Tools -->
<svg height="800px" width="800px" version="1.1" id="Layer_1" xmlns="http://www.w3.org/2000/svg" xmlns:xlink="http://www.w3.org/1999/xlink" 
	 viewBox="0 0 496.162 496.162" xml:space="preserve">
<path style="fill:#337180;" d="M248.077,0C111.072,0,0.002,111.062,0.002,248.083c0,137.005,111.07,248.079,248.075,248.079
	c137.013,0,248.083-111.074,248.083-248.079C496.16,111.062,385.09,0,248.077,0z"/>
<path style="fill:#F7B034;" d="M406.396,212.873l-276.369,18.625c0,0-64.932,59.858-44.459,85.915
	c19.826,25.234,57.676,60.081,129.773,43.258c0,0,125.369-40.854,161.416-64.886C376.758,295.785,460.469,263.341,406.396,212.873z"
	/>
<path style="fill:#EAA607;" d="M406.396,212.873C393.18,77.091,262.203,91.511,262.203,91.511
	c-141.789,16.822-136.17,151.804-129.773,161.016c20.025,28.839,77.975,45.344,107.346,54.474
	c59.277,18.424,107.342-10.415,107.342-10.415C426.424,267.748,406.396,212.873,406.396,212.873z"/>
<path style="fill:#F9B121;" d="M356.73,116.344c0,0-14.42-23.231-38.453-24.833c-71.5-4.769-166.223,47.464-181.443,166.824
	c0,0,13.422,13.417,31.045,22.23c19.871,9.938,51.668,19.826,51.668,19.826S173.285,129.962,356.73,116.344z"/>
<path style="fill:#FFC364;" d="M318.277,91.511c-71.5-4.769-166.223,47.464-181.443,166.824c0,0,13.422,13.417,31.045,22.23
	c0,0-0.221-83.334,47.863-128.974c47.262-44.86,127.896-49.524,127.896-49.524C337.234,96.924,328.652,92.203,318.277,91.511z"/>
</svg>