<?xml version="1.0" encoding="utf-8"?>

<!DOCTYPE svg PUBLIC "-//W3C//DTD SVG 1.1//EN" "http://www.w3.org/Graphics/SVG/1.1/DTD/svg11.dtd">
<!-- Uploaded to: SVG Repo, www.svgrepo.com, Generator: SVG Repo Mixer Tools -->
<svg height="800px" width="800px" version="1.1" id="_x32_" xmlns="http://www.w3.org/2000/svg" xmlns:xlink="http://www.w3.org/1999/xlink" 
	 viewBox="0 0 512 512"  xml:space="preserve">
<style type="text/css">
	.st0{fill:#000000;}
</style>
<g>
	<path class="st0" d="M481.091,68.928c-40.235-45.742-93.628-58.255-154.403-36.173l9.588,26.396l-9.592-26.396h-0.008
		c-5.463,1.994-11.059,4.277-16.644,6.827c-51.833,23.594-75.274,69.033-92.39,102.205c-5.092,9.88-12.016,23.312-15.796,26.87
		c-10.663,4.959-20.811,8.902-31.541,13.068c-27.815,10.778-56.572,21.934-93.724,50.732C25.446,272.09,0.4,322.014,0.002,385.08
		c-0.215,34.29,14.232,63.629,40.688,82.642c26.354,18.939,75.515,35.417,160.04,6.382c1.278-0.445,2.538-0.89,3.792-1.342
		c73.725-26.781,106.24-82.072,123.707-111.78c3.536-6.004,7.539-12.817,9.444-14.981c5.892-6.679,20.748-14.603,39.538-24.639
		c18.235-9.733,40.924-21.845,68.225-39.339c35.981-23.046,59.07-59.048,65.038-101.374
		C516.331,138.999,505.071,96.183,481.091,68.928z M430.286,258.37c-59.419,38.064-97.041,50.19-113.672,69.048
		c-16.415,18.606-38.838,88.854-121.684,118.942c-1.097,0.408-2.202,0.793-3.325,1.171c-108.175,37.174-163.88-4.506-163.517-62.273
		c0.323-51.154,19.065-94.443,65.702-130.594c48.155-37.33,80.752-42.148,120.868-60.991
		c27.004-12.675,37.404-96.837,107.015-128.526c5.004-2.283,9.866-4.277,14.592-5.99c61.064-22.186,99.506,0.771,123.73,28.324
		C492.729,124.685,499.556,213.998,430.286,258.37z"/>
	<path class="st0" d="M406.884,129.458c-2.386,4.263-0.874,9.644,3.373,12.031c4.254,2.386,9.628,0.874,12.022-3.38
		c2.558-4.544,4.544-8.532,6.049-11.779c1.498-3.239,2.543-5.76,3.136-7.22c1.868-4.507-0.289-9.666-4.796-11.519
		c-4.507-1.868-9.666,0.282-11.519,4.796c-0.6,1.438-1.498,3.618-2.839,6.508C410.976,121.787,409.197,125.36,406.884,129.458z"/>
	<path class="st0" d="M202.676,327.966c3.202,3.677,8.776,4.055,12.456,0.845c10.738-9.354,21.4-18.902,31.815-28.316
		c3.618-3.268,3.899-8.85,0.63-12.467c-3.272-3.625-8.85-3.899-12.471-0.63c-10.374,9.369-20.963,18.842-31.585,28.116
		C199.848,318.715,199.47,324.297,202.676,327.966z"/>
	<path class="st0" d="M304.884,224.925c-9.921,8.413-20.691,17.998-32.051,28.242c-3.618,3.262-3.903,8.85-0.634,12.468
		c3.266,3.617,8.847,3.906,12.464,0.637c11.3-10.199,21.948-19.658,31.64-27.878c3.718-3.158,4.177-8.724,1.027-12.446
		C314.176,222.234,308.605,221.774,304.884,224.925z"/>
	<path class="st0" d="M164.791,347.935c-11.493,9.126-22.775,17.546-33.56,24.832c-4.043,2.736-5.11,8.214-2.38,12.253
		c2.728,4.047,8.217,5.107,12.261,2.38c11.286-7.621,22.898-16.3,34.654-25.64c3.821-3.016,4.458-8.576,1.423-12.402
		C174.157,345.541,168.6,344.904,164.791,347.935z"/>
	<path class="st0" d="M377.672,168.056c-8.517,8.673-18.791,17.545-31.185,26.018c-4.025,2.75-5.059,8.25-2.301,12.268
		c2.746,4.025,8.246,5.056,12.264,2.313c13.372-9.154,24.55-18.784,33.816-28.234c3.424-3.469,3.372-9.058-0.112-12.482
		C386.685,164.528,381.089,164.579,377.672,168.056z"/>
	<path class="st0" d="M88.694,395.976l-0.534,0.193c-6.163,2.246-11.801,3.618-16.704,4.092c-4.852,0.467-8.402,4.781-7.935,9.636
		c0.47,4.856,4.788,8.406,9.64,7.939c6.816-0.674,13.813-2.446,21.03-5.063l0.612-0.229c4.573-1.683,6.916-6.761,5.229-11.334
		C98.345,396.629,93.267,394.294,88.694,395.976z"/>
	<path class="st0" d="M217.164,389.246c-2.294,1.854-4.648,3.625-7.064,5.315c-6.234,4.374-12.46,8.198-18.594,11.549
		c-3.702,2.016-5.063,6.649-3.043,10.348c2.017,3.691,6.649,5.048,10.348,3.039c6.612-3.618,13.324-7.732,20.04-12.446
		c2.709-1.898,5.329-3.876,7.876-5.93c3.28-2.632,3.798-7.427,1.156-10.712C225.247,387.126,220.444,386.607,217.164,389.246z"/>
	<path class="st0" d="M155.988,421.238c-11.453,3.624-21.756,5.789-30.124,7.138c-4.155,0.682-6.983,4.596-6.312,8.747
		c0.678,4.166,4.588,6.983,8.751,6.316c8.951-1.453,19.998-3.773,32.293-7.672c4.014-1.275,6.237-5.552,4.963-9.57
		C164.287,422.187,160.002,419.963,155.988,421.238z"/>
	<path class="st0" d="M272.41,333.8c-3.569-2.238-8.272-1.156-10.508,2.409c-5.3,8.458-11.24,17.19-17.927,25.604
		c-2.62,3.284-2.072,8.087,1.226,10.711c3.295,2.616,8.094,2.075,10.712-1.23c7.142-8.984,13.394-18.183,18.91-26.982
		C277.057,340.746,275.975,336.039,272.41,333.8z"/>
	<path class="st0" d="M305.251,275.486c-6.604,4.529-12.142,9.132-16.07,14.692c-2.309,3.291-4.652,7.175-7.201,11.571
		c-2.113,3.64-0.868,8.302,2.772,10.407c3.647,2.112,8.309,0.874,10.422-2.765c2.446-4.232,4.637-7.827,6.494-10.459
		c2.135-3.098,6.349-6.894,12.175-10.838c3.476-2.379,4.378-7.116,2.009-10.592C313.479,274.018,308.738,273.121,305.251,275.486z"
		/>
	<path class="st0" d="M423.429,199.218v-0.007c-5.344,7.628-12.075,14.766-20.6,20.74l-0.044,0.037
		c-3.439,2.417-4.285,7.168-1.868,10.614c2.424,3.447,7.175,4.285,10.63,1.876l0.044-0.045
		c10.126-7.093,18.102-15.581,24.328-24.476c2.409-3.447,1.579-8.198-1.876-10.622C430.597,194.926,425.838,195.764,423.429,199.218
		z"/>
	<path class="st0" d="M451.086,127.909c-4.218,0.023-7.606,3.454-7.584,7.657c0.008,0.378-0.059,13.342-4.544,29.688
		c-1.112,4.054,1.282,8.25,5.344,9.362c4.055,1.111,8.242-1.283,9.362-5.338c5.152-18.842,5.077-33.334,5.085-33.793
		C458.728,131.275,455.295,127.887,451.086,127.909z"/>
	<path class="st0" d="M369.288,240.513c-9.636,5.293-19.214,10.199-28.25,14.847c-3.744,1.935-5.214,6.531-3.284,10.281
		c1.927,3.736,6.53,5.212,10.274,3.277c9.014-4.64,18.71-9.606,28.598-15.04c3.691-2.03,5.041-6.664,3.01-10.355
		C377.612,239.831,372.979,238.482,369.288,240.513z"/>
	<path class="st0" d="M338.192,103.218c-3.461-3.425-9.058-3.388-12.482,0.081c-10.148,10.267-18.59,21.564-25.881,32.972
		c-2.624,4.114-1.419,9.577,2.687,12.193c4.11,2.624,9.57,1.423,12.198-2.683c6.8-10.652,14.52-20.925,23.553-30.073
		C341.694,112.239,341.658,106.65,338.192,103.218z"/>
	<path class="st0" d="M374.699,89.935c2.713-1.23,5.522-2.387,8.413-3.439c7.205-2.61,14.988-4.648,23.468-5.974
		c4.811-0.749,8.109-5.271,7.353-10.088c-0.756-4.818-5.278-8.11-10.095-7.354c-9.57,1.505-18.465,3.825-26.745,6.827
		c-3.328,1.208-6.56,2.535-9.688,3.951c-4.44,2.024-6.404,7.257-4.388,11.698C365.033,89.986,370.266,91.944,374.699,89.935z"/>
	<path class="st0" d="M271.809,223.606c7.161-9.777,13.302-22.423,20.266-36.381c2.172-4.366,0.393-9.659-3.973-11.83
		c-4.366-2.179-9.662-0.393-11.842,3.973c-6.92,13.966-12.987,26.108-18.672,33.779c-2.887,3.921-2.046,9.444,1.879,12.342
		C263.396,228.372,268.918,227.541,271.809,223.606z"/>
	<path class="st0" d="M85.358,347.238c3.258-3.632,2.962-9.213-0.663-12.467c-3.624-3.262-9.21-2.972-12.468,0.652
		c-10.655,11.89-19.009,23.928-23.524,36.336c-1.652,4.581,0.726,9.644,5.311,11.304c4.582,1.646,9.644-0.72,11.301-5.308
		C68.584,368.602,75.614,358.039,85.358,347.238z"/>
	<path class="st0" d="M192.143,267.554c12.768-7.22,24.795-13.439,35.047-18.257c4.41-2.068,6.308-7.323,4.236-11.742
		c-2.075-4.41-7.331-6.308-11.745-4.239c-10.733,5.048-23.101,11.445-36.232,18.88c-4.244,2.402-5.738,7.782-3.332,12.03
		C182.518,268.466,187.903,269.963,192.143,267.554z"/>
	<path class="st0" d="M151.667,292.497c4.051-2.713,5.137-8.198,2.42-12.252c-2.709-4.048-8.195-5.13-12.249-2.424
		c-11.334,7.606-22.53,15.663-33.072,24.009c-3.825,3.032-4.469,8.584-1.438,12.409c3.024,3.81,8.58,4.462,12.402,1.431
		C129.833,307.67,140.667,299.865,151.667,292.497z"/>
</g>
</svg>